<?xml version="1.0" encoding="UTF-8"?>
<svg xmlns="http://www.w3.org/2000/svg" xmlns:xlink="http://www.w3.org/1999/xlink" style="display: none;">
  <!-- Menu de todas as categorias (3 linhas horizontais) -->
  <symbol id="menu-all-categories" viewBox="0 0 24 24">
    <path d="M3 18h18v-2H3v2zm0-5h18v-2H3v2zm0-7v2h18V6H3z" fill="currentColor"/>
  </symbol>
  
  <!-- Seta para a direita -->
  <symbol id="arrow-right" viewBox="0 0 24 24">
    <path d="M8.59 16.59L10 18l6-6-6-6-1.41 1.41L12.17 12l-3.58 3.59z" fill="currentColor"/>
  </symbol>
  
  <!-- Seta para baixo -->
  <symbol id="arrow-down" viewBox="0 0 24 24">
    <path d="M7.41 8.59L12 13.17l4.59-4.58L18 10l-6 6-6-6 1.41-1.41z" fill="currentColor"/>
  </symbol>
  
  <!-- Ícone de busca / lupa -->
  <symbol id="search" viewBox="0 0 24 24">
    <path d="M15.5 14h-.79l-.28-.27C15.41 12.59 16 11.11 16 9.5 16 5.91 13.09 3 9.5 3S3 5.91 3 9.5 5.91 16 9.5 16c1.61 0 3.09-.59 4.23-1.57l.27.28v.79l5 4.99L20.49 19l-4.99-5zm-6 0C7.01 14 5 11.99 5 9.5S7.01 5 9.5 5 14 7.01 14 9.5 11.99 14 9.5 14z" fill="currentColor"/>
  </symbol>
  
  <!-- Ícone de usuário -->
  <symbol id="user" viewBox="0 0 24 24">
    <path d="M12 12c2.21 0 4-1.79 4-4s-1.79-4-4-4-4 1.79-4 4 1.79 4 4 4zm0 2c-2.67 0-8 1.34-8 4v2h16v-2c0-2.66-5.33-4-8-4z" fill="currentColor"/>
  </symbol>
  
  <!-- Ícone de carrinho -->
  <symbol id="cart" viewBox="0 0 24 24">
    <path d="M7 18c-1.1 0-1.99.9-1.99 2S5.9 22 7 22s2-.9 2-2-.9-2-2-2zM1 2v2h2l3.6 7.59-1.35 2.45c-.16.28-.25.61-.25.96 0 1.1.9 2 2 2h12v-2H7.42c-.14 0-.25-.11-.25-.25l.03-.12.9-1.63h7.45c.75 0 1.41-.41 1.75-1.03l3.58-6.49c.08-.14.12-.31.12-.48 0-.55-.45-1-1-1H5.21l-.94-2H1zm16 16c-1.1 0-1.99.9-1.99 2s.89 2 1.99 2 2-.9 2-2-.9-2-2-2z" fill="currentColor"/>
  </symbol>
  
  <!-- Fechar (X) -->
  <symbol id="close-menu-mobile" viewBox="0 0 24 24">
    <path d="M19 6.41L17.59 5 12 10.59 6.41 5 5 6.41 10.59 12 5 17.59 6.41 19 12 13.41 17.59 19 19 17.59 13.41 12z" fill="currentColor"/>
  </symbol>
  
  <!-- Selo Oficial da Loja -->
  <symbol id="official-store-stamp" viewBox="0 0 100 100">
    <circle cx="50" cy="50" r="45" stroke="currentColor" stroke-width="2" fill="none" />
    <text x="50" y="55" font-size="12" text-anchor="middle" fill="currentColor">Loja Oficial</text>
  </symbol>
</svg>
